<svg width="151" height="16" fill="none" xmlns="http://www.w3.org/2000/svg"><path d="M3.714 14.514c-2.457 0-3.714-.343-3.714-.343V11.03h2.629v1.314s.4.114 1.257.114c1.028 0 1.314-.571 1.314-1.143 0-.8-.514-1.085-1.429-1.771l-1.828-1.2C.914 7.657.057 6.629.057 4.914c0-2.228 1.314-3.371 4-3.371 2.457 0 3.6.343 3.6.343v3.028H4.971V3.657S4.63 3.6 4.057 3.6c-1.028 0-1.314.514-1.314 1.143 0 .8.4 1.028 1.086 1.486L6 7.6c1.257.8 1.943 1.771 1.943 3.429.057 2.514-1.6 3.485-4.229 3.485z" fill="#FF7E21"/><path fill-rule="evenodd" clip-rule="evenodd" d="M9.829 11.257c0 1.657.514 3.257 4 3.257 2.628 0 4-.743 4-3.257v-6.4c0-1.714-.286-3.371-3.943-3.371-2.629 0-4.057.628-4.057 3.2v6.571zM13.886 3.6c1.028 0 1.2.286 1.2 1.257v6.4c0 .8-.229 1.2-1.257 1.2-.972 0-1.2-.4-1.2-1.2v-6.4c0-.857.171-1.257 1.257-1.257z" fill="#FF7E21"/><path d="m29.943 14.286-.115-.743c-.742.686-1.714.8-2.4.8-2.8 0-3.085-1.6-3.085-3.429V4.63c0-2.686 1.371-3.258 4.228-3.258 2.172 0 3.429.343 3.429.343v3.6h-2.572V3.6s-.457-.114-1.028-.114c-.914 0-1.314.171-1.314 1.143V10.8c0 .743.057 1.2 1.257 1.2.914 0 1.371-.171 1.371-.171v-2.4H28.63V7.543h3.657v6.743h-2.343zm4.457 0V1.714h6.514v2.172h-3.771v2.8h3.428v2.171h-3.428v3.257h3.828v2.172H34.4zm13.943 0V8.857h-2.457v5.429h-2.8V1.714h2.8v4.972h2.457V1.714h2.8v12.572h-2.8zM58 3.886v10.4h-2.8v-10.4h-2.572V1.714h8v2.172H58z" fill="#FF7E21"/><path fill-rule="evenodd" clip-rule="evenodd" d="M66.514 14.286h4.229c2.857 0 3.771-.629 3.771-3.372V5.03c0-2.686-1.143-3.315-3.828-3.315h-4.172v12.572zm3.829-10.343c1.2 0 1.428.171 1.428 1.257v5.6c0 1.029-.171 1.371-1.371 1.371h-1.086V3.943h1.029zM81.6 11.029l.686 3.257h2.857L82.57 1.714h-4.114L76 14.286h2.857l.572-3.257H81.6zm-1.086-7.486c0 .286.229 2.057.4 2.857l.457 2.571h-1.714l.457-2.571c.04-.276.093-.68.147-1.099.105-.797.216-1.646.253-1.758z" fill="#FF7E21"/><path d="M90.343 14.514c-2.457 0-3.715-.343-3.715-.343V11.03h2.629v1.314s.4.114 1.257.114c1.029 0 1.314-.571 1.314-1.143 0-.8-.514-1.085-1.428-1.771l-1.829-1.2c-1.028-.686-1.885-1.714-1.885-3.429 0-2.228 1.314-3.371 4-3.371 2.457 0 3.6.343 3.6.343v3.028h-2.629V3.657s-.343-.057-.914-.057c-1.029 0-1.315.514-1.315 1.143 0 .8.4 1.028 1.086 1.486L92.686 7.6c1.257.8 1.942 1.771 1.942 3.429 0 2.514-1.657 3.485-4.285 3.485z" fill="#FF7E21"/><path fill-rule="evenodd" clip-rule="evenodd" d="M105.429 9.714c0 1.772 1.143 1.886 1.885 1.886.972 0 1.943-.343 1.943-1.771V6.343c0-1.772-1.314-1.829-1.943-1.829h-.034c-.444-.001-1.851-.006-1.851 1.829v3.371zm1.885-4.571c.8 0 1.2.171 1.2 1.314v3.314c0 1.086-.514 1.2-1.2 1.2-.742 0-1.142-.171-1.142-1.257V6.4c0-1.029.342-1.257 1.142-1.257zm5.029 6.343h-1.657V4.629h1.657c1.085 0 1.943.171 1.943 1.428v.457c0 .686-.286 1.086-.8 1.257.685.172 1.028.686 1.028 1.429v.571c0 1.429-.8 1.715-2.171 1.715zm1.2-5.429c0-.807-.608-.803-1.203-.8h-.912v2.229h.972c.743 0 1.143-.343 1.143-.972v-.457zm-1.086 2.114c.857 0 1.314.343 1.314 1.029v.571c0 1.029-.514 1.086-1.485 1.086h-.858V8.171h1.029z" fill="#333"/><path d="M115.771 11.486V4.629h.743v6.857h-.743zm9.029 0V5.829l-1.429 5.657h-.685l-1.429-5.657v5.657h-.743V4.629h1.2l1.314 5.314 1.315-5.314h1.2v6.857h-.743z" fill="#333"/><path fill-rule="evenodd" clip-rule="evenodd" d="M129.657 11.086v.4h.743V7.543c0-1.143-.629-1.486-1.543-1.486-1.143 0-1.829.229-1.829.229v1.2h.686V6.8s.286-.057.914-.057c.8 0 .972.228.972.8v.628c-1.143.058-2.8.172-2.8 1.772v.286c0 1.085.8 1.314 1.6 1.314.628 0 1.257-.457 1.257-.457zm-.072-2.338.072-.005h.057V10.4s-.628.457-1.2.457c-.457 0-.914-.114-.914-.743v-.228c0-.999 1.184-1.082 1.985-1.138zm2.187 4.395s.685.228 1.6.228c.971 0 1.885-.228 1.885-1.714V6.171h-.743v.343c-.342-.285-.971-.457-1.371-.457-1.029 0-1.486.572-1.486 1.543v2.057c0 .857.286 1.6 1.486 1.6.4 0 .971-.171 1.371-.4v.743c0 1.086-.571 1.086-1.142 1.086a8.47 8.47 0 0 1-.915-.057V12h-.685v1.143zm1.485-6.457c.343 0 .972.228 1.257.457v3.086c-.228.228-.914.457-1.2.457-.742 0-.914-.343-.914-.915V7.657c0-.571.114-.971.857-.971zm6.057 4.4v.4h.743V7.543c0-1.143-.629-1.486-1.543-1.486-1.143 0-1.828.229-1.828.229v1.2h.685V6.8s.286-.057.915-.057c.8 0 .971.228.971.8v.628c-1.143.058-2.8.172-2.8 1.772v.286c0 1.085.8 1.314 1.6 1.314.629 0 1.257-.457 1.257-.457zm-.072-2.338a15.7 15.7 0 0 0 .072-.005h.057V10.4s-.628.457-1.2.457c-.457 0-.914-.114-.914-.743v-.228c0-.999 1.184-1.082 1.985-1.138z" fill="#333"/><path d="M140.914 11.486v-.572l2.514-4.057h-2.4V6.23h3.2v.57l-2.514 4.057h2.514v.629h-3.314z" fill="#333"/><path fill-rule="evenodd" clip-rule="evenodd" d="M145.143 4.343v.971h.743v-.971h-.743zm0 1.828v5.315h.743V6.17h-.743z" fill="#333"/><path d="M150.057 11.486V7.543c0-.457-.228-.8-.857-.8-.343 0-.914.228-1.257.457v4.286h-.743V6.17h.743v.4s.629-.457 1.314-.457c1.257 0 1.486.572 1.486 1.429v3.943h-.686zM99.257 0h1.143v16h-1.143z" fill="#333"/></svg>