<svg width="64" height="40" fill="none" xmlns="http://www.w3.org/2000/svg"><rect width="64" height="40" rx="4" fill="#fff"/><path fill-rule="evenodd" clip-rule="evenodd" d="M8.887 16.193h3.827c2.054 0 2.828 1.04 2.708 2.568-.197 2.523-1.723 3.919-3.746 3.919h-1.021c-.278 0-.464.184-.54.681l-.433 2.895c-.029.187-.127.296-.276.31H7.002c-.226 0-.306-.172-.247-.546l1.466-9.279c.057-.371.26-.548.666-.548Z" fill="#009EE3"/><path fill-rule="evenodd" clip-rule="evenodd" d="M25.504 16.022c1.29 0 2.482.7 2.319 2.446-.198 2.074-1.309 3.222-3.062 3.227h-1.532c-.22 0-.327.18-.385.548l-.296 1.884c-.044.284-.19.424-.406.424h-1.425c-.227 0-.306-.145-.256-.47l1.176-7.55c.059-.371.198-.51.452-.51h3.415Zm-2.322 4.042h1.16c.727-.028 1.209-.53 1.257-1.438.03-.56-.348-.96-.95-.958l-1.092.005-.375 2.39Zm8.516 3.91c.13-.12.263-.18.244-.034l-.046.35c-.024.182.048.28.218.28h1.266c.214 0 .317-.087.37-.417l.78-4.897c.04-.246-.02-.367-.207-.367H32.93c-.126 0-.187.07-.22.262l-.05.301c-.027.157-.1.185-.167.027-.236-.56-.838-.81-1.679-.79-1.953.04-3.27 1.523-3.41 3.423-.11 1.47.943 2.625 2.332 2.625 1.008 0 1.458-.296 1.966-.76l-.004-.004Zm-1.06-.754c-.841 0-1.427-.671-1.306-1.493.122-.822.908-1.492 1.749-1.492.84 0 1.426.67 1.305 1.492-.122.822-.907 1.493-1.749 1.493Zm6.37-4.347h-1.284c-.264 0-.372.198-.288.441l1.594 4.668-1.563 2.222c-.132.186-.03.354.155.354h1.443c.172.02.34-.062.428-.21l4.904-7.033c.151-.216.08-.444-.168-.444h-1.366c-.234 0-.328.093-.462.288l-2.045 2.963-.914-2.97c-.053-.18-.187-.279-.433-.279Z" fill="#113984"/><path fill-rule="evenodd" clip-rule="evenodd" d="M47.495 16.022c1.291 0 2.483.7 2.32 2.446-.198 2.074-1.31 3.222-3.063 3.227h-1.53c-.22 0-.328.18-.385.548l-.296 1.884c-.045.284-.19.424-.406.424h-1.426c-.227 0-.306-.145-.256-.47l1.179-7.552c.058-.371.198-.51.451-.51h3.412v.003Zm-2.321 4.042h1.16c.727-.028 1.209-.53 1.257-1.438.03-.56-.349-.96-.95-.958l-1.093.005-.374 2.39Zm8.516 3.91c.13-.12.263-.18.244-.034l-.047.35c-.023.182.049.28.219.28h1.266c.213 0 .317-.087.37-.417l.78-4.897c.04-.246-.021-.367-.208-.367h-1.39c-.126 0-.187.07-.22.262l-.051.301c-.027.157-.099.185-.166.027-.236-.56-.839-.81-1.68-.79-1.952.04-3.269 1.523-3.41 3.424-.109 1.47.944 2.624 2.333 2.624 1.008 0 1.458-.296 1.966-.76l-.006-.003Zm-1.06-.754c-.84 0-1.427-.67-1.305-1.493.121-.822.908-1.492 1.748-1.492.841 0 1.427.67 1.305 1.492-.121.822-.908 1.493-1.748 1.493Zm5.84 1.357h-1.46a.173.173 0 0 1-.18-.198l1.285-8.135a.252.252 0 0 1 .243-.198h1.462a.173.173 0 0 1 .179.198l-1.284 8.135a.252.252 0 0 1-.243.2v-.002Z" fill="#009EE3"/><path fill-rule="evenodd" clip-rule="evenodd" d="M6.493 13h3.83c1.08 0 2.36.035 3.215.79.572.505.872 1.308.803 2.173-.235 2.925-1.984 4.564-4.331 4.564H8.12c-.321 0-.533.213-.624.79l-.528 3.359c-.034.217-.128.346-.296.361H4.308c-.262 0-.355-.197-.286-.634L5.72 13.638c.068-.432.306-.638.772-.638Z" fill="#113984"/><path fill-rule="evenodd" clip-rule="evenodd" d="m7.552 20.976.668-4.235c.059-.371.262-.549.667-.549h3.827c.633 0 1.146.099 1.547.282-.384 2.603-2.069 4.05-4.273 4.05H8.102c-.253 0-.439.127-.55.452Z" fill="#172C70"/></svg>