<svg width="64" height="40" fill="none" xmlns="http://www.w3.org/2000/svg"><rect width="64" height="40" rx="4" fill="#fff"/><path d="M22.258 17V8.469h2.924c.965 0 1.699.193 2.203.58.504.387.756.963.756 1.728 0 .391-.106.743-.317 1.055-.21.313-.52.555-.926.727.461.125.817.36 1.067.709.254.343.38.757.38 1.242 0 .8-.257 1.416-.773 1.845-.511.43-1.246.645-2.203.645h-3.111zm1.482-3.85v2.666h1.647c.465 0 .828-.115 1.09-.345.261-.23.392-.551.392-.961 0-.887-.453-1.34-1.36-1.36H23.74zm0-1.09h1.453c.461 0 .82-.103 1.078-.31.262-.21.393-.508.393-.89 0-.422-.121-.727-.363-.915-.238-.187-.611-.28-1.12-.28h-1.44v2.396zM33.478 17c-.062-.121-.117-.318-.163-.592a2.216 2.216 0 0 1-1.665.71c-.636 0-1.156-.182-1.558-.546a1.744 1.744 0 0 1-.604-1.347c0-.676.25-1.194.75-1.553.504-.363 1.223-.545 2.157-.545h.873v-.416c0-.328-.092-.59-.276-.785-.183-.2-.463-.299-.838-.299-.324 0-.59.082-.797.246a.745.745 0 0 0-.31.615h-1.424c0-.347.115-.672.346-.972.23-.305.543-.543.937-.715a3.324 3.324 0 0 1 1.33-.258c.742 0 1.334.188 1.776.563.441.37.668.894.68 1.57v2.86c0 .57.08 1.025.24 1.364v.1h-1.454zm-1.564-1.025c.281 0 .545-.069.791-.205.25-.137.438-.32.563-.551v-1.196H32.5c-.527 0-.924.092-1.19.276a.892.892 0 0 0-.398.78c0 .273.09.491.27.655.183.16.427.24.732.24zm7.588-4.014a3.53 3.53 0 0 0-.58-.047c-.652 0-1.092.25-1.319.75V17H36.18v-6.34h1.36l.034.71c.344-.552.82-.827 1.43-.827.203 0 .371.027.504.082l-.006 1.336zm3.662 1.986h-3.076V12.8h3.076v1.148zM13.54 29.863h3.375V31H11.77v-.932l3.217-4.26h-3.158V24.66h4.963v.902l-3.252 4.301zM21.842 31c-.063-.121-.117-.318-.164-.592a2.216 2.216 0 0 1-1.664.71c-.637 0-1.157-.182-1.559-.546a1.743 1.743 0 0 1-.603-1.347c0-.676.25-1.194.75-1.553.503-.363 1.222-.545 2.156-.545h.873v-.416c0-.328-.092-.59-.276-.785-.183-.2-.462-.299-.837-.299-.325 0-.59.082-.797.246a.745.745 0 0 0-.31.615h-1.425c0-.347.116-.672.346-.972a2.29 2.29 0 0 1 .938-.715 3.324 3.324 0 0 1 1.33-.258c.742 0 1.334.188 1.775.563.441.37.668.894.68 1.57v2.86c0 .57.08 1.024.24 1.364v.1h-1.453zm-1.565-1.025c.282 0 .545-.069.791-.206.25-.136.438-.32.563-.55v-1.196h-.768c-.527 0-.924.092-1.19.276a.892.892 0 0 0-.398.78c0 .273.09.491.27.655.183.16.428.24.732.24zm5.672-4.623a2.229 2.229 0 0 1 1.764-.809c1.351 0 2.037.771 2.056 2.314V31h-1.423v-4.09c0-.437-.096-.746-.287-.926-.188-.183-.465-.275-.832-.275-.57 0-.997.254-1.278.762V31h-1.424v-9h1.424v3.352zM32.73 31h-1.424v-9h1.423v9zm5.396-.621c-.418.492-1.012.738-1.781.738-.688 0-1.21-.201-1.565-.603-.351-.403-.527-.985-.527-1.746V24.66h1.424v4.09c0 .805.334 1.207 1.002 1.207.691 0 1.158-.248 1.4-.744V24.66h1.424V31H38.16l-.035-.621zm4.148-5.719.041.733c.47-.567 1.084-.85 1.846-.85 1.32 0 1.992.756 2.016 2.268V31h-1.424v-4.107c0-.403-.088-.7-.264-.891-.172-.195-.455-.293-.85-.293-.573 0-1.001.26-1.282.78V31h-1.424v-6.34h1.341zm5.11 3.123c0-.984.23-1.77.691-2.355.465-.59 1.08-.885 1.846-.885.723 0 1.29.252 1.705.756l.065-.639h1.283v6.147c0 .832-.26 1.488-.78 1.968-.515.48-1.212.721-2.091.721-.465 0-.92-.098-1.366-.293-.441-.191-.777-.443-1.008-.756l.674-.855c.438.52.977.78 1.617.78.473 0 .846-.13 1.12-.388.273-.254.41-.629.41-1.125v-.427c-.41.457-.957.685-1.64.685-.743 0-1.35-.295-1.823-.885-.469-.59-.703-1.406-.703-2.449zm1.418.123c0 .637.129 1.139.386 1.506.262.363.623.545 1.085.545.574 0 1-.246 1.277-.738v-2.79c-.27-.48-.692-.72-1.266-.72-.468 0-.834.186-1.096.557-.257.37-.386.918-.386 1.64z" fill="#222"/></svg>