<svg width="64" height="40" fill="none" xmlns="http://www.w3.org/2000/svg"><rect width="64" height="40" rx="4" fill="#fff"/><path d="M35.785 18.56h1.743V12h-1.743v6.56Zm-.914-4.442c0-1.256-.895-2.118-2.33-2.118h-3.777v6.56h1.744v-2.296h.634l1.986 2.296h2.163l-2.163-2.371c1.09-.234 1.743-1.04 1.743-2.071Zm-2.535.693h-1.828v-1.32h1.828c.521 0 .783.309.783.664 0 .366-.262.656-.783.656Zm7.859.525v-.121c0-.975.54-1.678 1.66-1.678h1.938V12h-2.088c-2.154 0-3.254 1.387-3.254 3.214v.131c0 2.034 1.25 3.214 3.17 3.214h.596l.7-1.49H41.89c-1.043 0-1.696-.59-1.696-1.733ZM6.881 12 4 18.56h1.92l.55-1.33h3.022l.56 1.33h1.966L9.139 12H6.88Zm.186 3.786.914-2.193.914 2.193H7.067Zm9.51.347L15.086 12h-2.741v6.56h1.715v-4.723l1.725 4.723h1.548l1.724-4.723v4.723h1.716V12H18.06l-1.483 4.133Zm5.529 2.427h5.52v-1.49h-3.777v-1.05h3.683v-1.49h-3.683v-1.04h3.776V12h-5.52v6.56ZM45.91 12l-2.88 6.56h1.92l.55-1.33h3.021l.56 1.33h1.967L48.166 12H45.91Zm.187 3.786.913-2.193.914 2.193h-1.827Zm10.134.216L53.574 12h-2.2v6.56h1.734v-4.151l2.74 4.151h2.108V12H56.23v4.002Zm-5.74 6.968h-1.603c-.345 0-.597-.206-.597-.525 0-.31.252-.515.597-.515h2.9l.68-1.49h-3.59c-1.482 0-2.33.88-2.33 2.061 0 1.237.82 1.959 2.097 1.959h1.604c.353 0 .596.206.596.525 0 .318-.242.524-.596.524h-3.497V27h3.506c1.464 0 2.331-.862 2.331-2.127 0-1.199-.764-1.902-2.098-1.902Zm-11.108-.412c0-1.256-.895-2.118-2.331-2.118h-3.776V27h1.743v-2.296h.634L37.64 27h2.163l-2.163-2.37c1.09-.235 1.744-1.04 1.744-2.072Zm-2.536.693h-1.828v-1.32h1.828c.522 0 .783.309.783.664 0 .366-.261.656-.783.656ZM40.297 27h5.519v-1.49H42.04v-1.05h3.682v-1.49H42.04v-1.04h3.776v-1.49h-5.52V27Zm-10.098-6.56h-3.823V27h1.743v-2.136h2.024c1.473 0 2.386-.938 2.386-2.212.001-1.312-.894-2.212-2.33-2.212Zm-.205 2.934H28.12V21.93h1.874c.522 0 .783.328.783.73 0 .394-.261.713-.783.713Zm26.908-.404H55.3c-.345 0-.597-.206-.597-.525 0-.31.252-.515.597-.515h2.899l.68-1.49H55.29c-1.482 0-2.33.88-2.33 2.061 0 1.237.82 1.959 2.097 1.959h1.604c.354 0 .597.206.597.525 0 .318-.243.524-.597.524h-3.497V27h3.506c1.463 0 2.33-.862 2.33-2.127 0-1.199-.764-1.902-2.098-1.902ZM12.345 27h5.519v-1.49h-3.776v-1.05h3.682v-1.49h-3.682v-1.04h3.776v-1.49h-5.52V27Zm13.715-6.56h-2.22l-1.697 1.977-1.697-1.977h-2.274l2.872 3.242L18.116 27h2.219l1.78-2.08L23.896 27h2.275l-2.946-3.355 2.834-3.205Z" fill="#006FCF"/></svg>