<svg width="64" height="40" fill="none" xmlns="http://www.w3.org/2000/svg"><rect width="64" height="40" rx="4" fill="#fff"/><path fill-rule="evenodd" clip-rule="evenodd" d="M31.232 11.313 27.557 28.41h-4.444l3.676-17.098h4.443zm18.698 11.04 2.34-6.42 1.347 6.42H49.93zm4.96 6.058H59l-3.588-17.098h-3.793c-.853 0-1.573.493-1.892 1.254L43.058 28.41h4.666l.927-2.554h5.701l.538 2.554zm-11.6-5.583c.02-4.512-6.27-4.761-6.227-6.777.014-.613.6-1.265 1.885-1.432.636-.083 2.392-.147 4.382.764l.78-3.625c-1.07-.386-2.445-.758-4.158-.758-4.392 0-7.484 2.324-7.509 5.652-.03 2.462 2.207 3.835 3.891 4.654 1.731.837 2.312 1.375 2.305 2.124-.013 1.148-1.38 1.654-2.66 1.674-2.234.034-3.531-.601-4.564-1.08l-.805 3.746c1.037.475 2.954.888 4.942.909 4.67 0 7.723-2.295 7.737-5.85zM24.881 11.313l-7.2 17.098h-4.698L9.44 14.765c-.215-.84-.402-1.148-1.056-1.501-1.068-.578-2.832-1.12-4.384-1.456l.105-.495h7.562c.964 0 1.83.638 2.05 1.743l1.871 9.894 4.626-11.637h4.668z" fill="#15195A"/></svg>