<svg width="64" height="40" fill="none" xmlns="http://www.w3.org/2000/svg"><rect width="64" height="40" rx="4" fill="#FFB3C7"/><path d="M56.377 22.681a1.476 1.476 0 0 0-1.366.926 1.492 1.492 0 0 0-.11.57 1.492 1.492 0 0 0 .91 1.38c.179.076.372.115.566.116.815 0 1.476-.67 1.476-1.496a1.492 1.492 0 0 0-.908-1.38 1.477 1.477 0 0 0-.568-.116zm-4.857-1.155c0-1.13-.954-2.047-2.131-2.047-1.177 0-2.131.918-2.131 2.047 0 1.13.955 2.047 2.132 2.047s2.13-.916 2.13-2.047zm.008-3.979h2.351v7.957h-2.35v-.508a4.088 4.088 0 0 1-2.333.728c-2.289 0-4.144-1.88-4.144-4.198 0-2.318 1.855-4.197 4.144-4.197.866 0 1.668.268 2.332.728v-.51zm-18.82 1.037v-1.035h-2.409v7.956h2.414v-3.716c0-1.254 1.34-1.926 2.27-1.926h.028v-2.314c-.955 0-1.832.414-2.304 1.035zm-6 2.942c0-1.13-.954-2.047-2.13-2.047-1.178 0-2.132.918-2.132 2.047 0 1.13.956 2.047 2.133 2.047s2.13-.916 2.13-2.047zm.009-3.979h2.352v7.957h-2.352v-.508a4.09 4.09 0 0 1-2.332.728c-2.289 0-4.145-1.88-4.145-4.198 0-2.318 1.856-4.197 4.145-4.197.865 0 1.667.268 2.332.728v-.51zm14.156-.213c-.94 0-1.828.295-2.423 1.11v-.895h-2.342v7.956h2.37v-4.181c0-1.21.8-1.803 1.766-1.803 1.033 0 1.629.625 1.629 1.786v4.198h2.348v-5.06c0-1.851-1.454-3.11-3.348-3.11zm-24.058 8.17h2.462v-11.5h-2.462v11.502zM6 25.508h2.607V14H6.001L6 25.507zM15.12 14c0 2.49-.958 4.81-2.667 6.531l3.603 4.976h-3.22L8.922 20.1l1.01-.767A6.647 6.647 0 0 0 12.567 14h2.553z" fill="#0A0B09"/></svg>