<svg width="64" height="40" fill="none" xmlns="http://www.w3.org/2000/svg"><rect width="64" height="40" rx="4" fill="#fff"/><path d="m10.873 21.958 2.168-6.674h1.629l-3.07 8.531h-1.436l-3.059-8.53H8.73l2.144 6.673zm4.09-1.371c0-.621.123-1.18.369-1.676a2.67 2.67 0 0 1 1.037-1.148c.445-.27.957-.405 1.535-.405.856 0 1.55.276 2.08.827.535.55.825 1.28.868 2.191l.005.334c0 .625-.12 1.184-.363 1.676a2.639 2.639 0 0 1-1.031 1.142c-.445.27-.961.405-1.547.405-.895 0-1.611-.297-2.15-.891-.536-.598-.803-1.393-.803-2.385v-.07zm1.424.123c0 .652.134 1.164.404 1.535.27.367.645.55 1.125.55s.854-.187 1.12-.562c.269-.375.403-.923.403-1.646 0-.64-.138-1.148-.416-1.523a1.311 1.311 0 0 0-1.119-.563c-.465 0-.834.185-1.107.557-.274.367-.41.918-.41 1.652zm8.994-1.934a3.518 3.518 0 0 0-.58-.046c-.653 0-1.092.25-1.319.75v4.335H22.06v-6.34h1.359l.035.71c.344-.551.82-.827 1.43-.827.203 0 .37.028.504.082l-.006 1.336zm2.959 2.32-.633.651v2.068h-1.424v-9h1.424v5.192l.445-.557 1.752-1.974h1.711l-2.355 2.642 2.607 3.697h-1.646l-1.881-2.718zm7.998 2.72c-.063-.122-.117-.319-.164-.592a2.216 2.216 0 0 1-1.664.709c-.637 0-1.157-.182-1.559-.545a1.743 1.743 0 0 1-.603-1.348c0-.676.25-1.193.75-1.553.504-.363 1.222-.545 2.156-.545h.873v-.416c0-.328-.092-.59-.275-.785-.184-.199-.463-.299-.838-.299-.325 0-.59.082-.797.247a.745.745 0 0 0-.31.615h-1.425c0-.348.116-.672.346-.973a2.29 2.29 0 0 1 .938-.715 3.324 3.324 0 0 1 1.33-.258c.742 0 1.334.188 1.775.563.441.371.668.894.68 1.57v2.86c0 .57.08 1.025.24 1.365v.1h-1.453zm-1.565-1.026c.282 0 .545-.068.791-.205.25-.137.438-.32.563-.55v-1.196h-.768c-.527 0-.924.092-1.19.275a.892.892 0 0 0-.397.78c0 .273.09.492.269.656.184.16.428.24.732.24zm7.823-.697a.644.644 0 0 0-.317-.58c-.207-.133-.552-.25-1.037-.352a5.34 5.34 0 0 1-1.213-.387c-.71-.343-1.066-.841-1.066-1.494 0-.547.23-1.004.691-1.37.461-.368 1.047-.552 1.758-.552.758 0 1.37.188 1.834.563.469.375.703.861.703 1.459h-1.424c0-.274-.101-.5-.304-.68-.203-.183-.473-.275-.809-.275-.312 0-.568.072-.767.217a.686.686 0 0 0-.293.58c0 .218.091.388.275.51.183.12.555.244 1.113.369.559.12.996.267 1.313.439.32.168.556.371.709.61.156.238.234.527.234.867 0 .57-.236 1.033-.709 1.388-.472.352-1.092.528-1.857.528a3.27 3.27 0 0 1-1.389-.282 2.286 2.286 0 0 1-.95-.773 1.83 1.83 0 0 1-.339-1.06h1.383c.02.335.146.595.38.779.235.18.545.27.932.27.375 0 .66-.071.856-.212a.67.67 0 0 0 .293-.562zm6.199 0a.644.644 0 0 0-.317-.58c-.206-.133-.552-.25-1.037-.352a5.34 5.34 0 0 1-1.213-.387c-.71-.343-1.066-.841-1.066-1.494 0-.547.23-1.004.691-1.37.462-.368 1.047-.552 1.758-.552.758 0 1.37.188 1.834.563.47.375.703.861.703 1.459h-1.423a.87.87 0 0 0-.305-.68c-.203-.183-.473-.275-.809-.275-.312 0-.568.072-.767.217a.685.685 0 0 0-.293.58.58.58 0 0 0 .275.51c.184.12.555.244 1.114.369.558.12.995.267 1.312.439.32.168.557.371.709.61.156.238.234.527.234.867 0 .57-.236 1.033-.709 1.388-.472.352-1.091.528-1.857.528-.52 0-.982-.094-1.389-.282a2.286 2.286 0 0 1-.949-.773 1.831 1.831 0 0 1-.34-1.06h1.383c.02.335.146.595.38.779.235.18.546.27.933.27.375 0 .66-.071.855-.212a.67.67 0 0 0 .293-.562zm5.437 1.84c-.902 0-1.634-.284-2.197-.85-.558-.57-.838-1.328-.838-2.273v-.176c0-.633.121-1.198.363-1.694.247-.5.59-.888 1.032-1.166a2.719 2.719 0 0 1 1.476-.416c.864 0 1.53.276 1.998.827.473.55.71 1.33.71 2.338v.574h-4.143c.043.523.217.937.521 1.242.309.305.696.457 1.16.457.653 0 1.184-.264 1.594-.791l.768.732a2.581 2.581 0 0 1-1.02.885c-.422.207-.896.31-1.424.31zm-.17-5.432c-.39 0-.706.137-.949.41-.238.274-.39.654-.457 1.143h2.713v-.106c-.031-.476-.158-.836-.38-1.078-.223-.246-.532-.369-.926-.369z" fill="#222"/></svg>