<svg width="64" height="40" fill="none" xmlns="http://www.w3.org/2000/svg"><rect width="64" height="40" rx="4" fill="#fff"/><path d="M39.144 8.172H24.862v23.326h14.282V8.172z" fill="#FF5F00"/><path d="M26.333 19.837A14.809 14.809 0 0 1 32 8.177c-6.082-4.78-14.815-4.084-20.063 1.599-5.248 5.683-5.248 14.444 0 20.127 5.248 5.682 13.981 6.379 20.063 1.599a14.809 14.809 0 0 1-5.666-11.665z" fill="#EB001B"/><path d="M54.582 29.03v-.478h.206v-.1h-.49v.1h.194v.478h.09zm.952 0v-.577h-.148l-.173.412-.174-.412h-.148v.577h.107v-.437l.161.375h.111l.16-.375v.437h.104zM56 19.837a14.833 14.833 0 0 1-24 11.66 14.833 14.833 0 0 0 0-23.325 14.833 14.833 0 0 1 24 11.661v.004z" fill="#F79E1B"/></svg>